HIERARCHY
ROOT Hips
{
  OFFSET 57.8838 95.319 338.509
  CHANNELS 6 Xposition Yposition Zposition Zrotation Xrotation Yrotation
  JOINT LeftUpLeg
  {
    OFFSET 8.64259 1.95398 -2.38835
    CHANNELS 3 Zrotation Xrotation Yrotation
    JOINT LeftLeg
    {
      OFFSET 43.7702 0 0
      CHANNELS 3 Zrotation Xrotation Yrotation
      JOINT LeftFoot
      {
        OFFSET 40.6238 0 0
        CHANNELS 3 Zrotation Xrotation Yrotation
        JOINT LeftToeBase
        {
          OFFSET 12.7242 0 0
          CHANNELS 3 Zrotation Xrotation Yrotation
          End Site
          {
            OFFSET 0 0 0
          }
        }
      }
    }
  }
  JOINT RightUpLeg
  {
    OFFSET -8.2249 1.95398 -2.59336
    CHANNELS 3 Zrotation Xrotation Yrotation
    JOINT RightLeg
    {
      OFFSET 43.5653 0 0
      CHANNELS 3 Zrotation Xrotation Yrotation
      JOINT RightFoot
      {
        OFFSET 40.6238 0 0
        CHANNELS 3 Zrotation Xrotation Yrotation
        JOINT RightToeBase
        {
          OFFSET 12.7242 0 0
          CHANNELS 3 Zrotation Xrotation Yrotation
          End Site
          {
            OFFSET 0 0 0
          }
        }
      }
    }
  }
  JOINT Spine
  {
    OFFSET 0.165834 0.87714 6.61349
    CHANNELS 3 Zrotation Xrotation Yrotation
    JOINT Spine1
    {
      OFFSET 7.38963 1.71661e-005 0
      CHANNELS 3 Zrotation Xrotation Yrotation
      JOINT Spine2
      {
        OFFSET 11.9445 1.14441e-005 0
        CHANNELS 3 Zrotation Xrotation Yrotation
        JOINT Spine3
        {
          OFFSET 14.7254 4.19617e-005 0
          CHANNELS 3 Zrotation Xrotation Yrotation
          JOINT Spine4
          {
            OFFSET 10.9679 0 0
            CHANNELS 3 Zrotation Xrotation Yrotation
            JOINT RightShoulder
            {
              OFFSET 2.46616 -1.6653 3.69651
              CHANNELS 3 Zrotation Xrotation Yrotation
              JOINT RightArm
              {
                OFFSET 13.0012 0 0
                CHANNELS 3 Zrotation Xrotation Yrotation
                JOINT RightForeArm
                {
                  OFFSET 28.7848 1.62311e-005 0
                  CHANNELS 3 Zrotation Xrotation Yrotation
                  JOINT RightHand
                  {
                    OFFSET 26.5688 1.62095e-005 0
                    CHANNELS 3 Zrotation Xrotation Yrotation
                    End Site
                    {
                      OFFSET 0 0 0
                    }
                  }
                }
              }
            }
            JOINT LeftShoulder
            {
              OFFSET 2.38034 -1.29275 -3.7523
              CHANNELS 3 Zrotation Xrotation Yrotation
              JOINT LeftArm
              {
                OFFSET 16.3182 6.07031e-005 0
                CHANNELS 3 Zrotation Xrotation Yrotation
                JOINT LeftForeArm
                {
                  OFFSET 27.0901 0 0
                  CHANNELS 3 Zrotation Xrotation Yrotation
                  JOINT LeftHand
                  {
                    OFFSET 24.5451 1.51738e-005 0
                    CHANNELS 3 Zrotation Xrotation Yrotation
                    End Site
                    {
                      OFFSET 0 0 0
                    }
                  }
                }
              }
            }
            JOINT Neck
            {
              OFFSET 5.0226 -0.0266342 0
              CHANNELS 3 Zrotation Xrotation Yrotation
              JOINT Head
              {
                OFFSET 6.69364 2.86102e-005 0
                CHANNELS 3 Zrotation Xrotation Yrotation
                End Site
                {
                  OFFSET 0 0 0
                }
              }
            }
          }
        }
      }
    }
  }
}
MOTION
Frames:	6
Frame Time:	0.0416667
-2.39004 12.0177 -57.0955 174.145 -0.238122 174.304 -177.588 4.31029 87.565 -7.47192 -16.7352 -0.987461 48.1602 -16.9002 -14.5557 7.29788 -10.4677 5.35994 172.543 4.87675 88.0859 -9.65013 10.7179 -0.347213 53.6906 17.5855 21.1786 15.5076 18.4534 -2.06073 -0.617816 7.41066 -90.7463 12.0422 -1.58053 -1.31603 0.371612 -1.63692 -1.2452 -22.1625 -1.11201 -1.73015 -2.14989 -1.11201 -1.73015 102.884 15.5088 -76.987 86.5929 -25.151 -9.38247 8.97752 -49.2432 0.00750486 -10.8463 -1.11959 7.29834 -74.7386 -11.3592 105.19 -84.6007 -24.9566 -12.2221 -162.779 86.1044 179.632 -0.247285 -0.0284265 -8.44067 36.3754 7.01583 9.66956 -26.3786 2.31599 -0.748412 
-2.35323 12.0163 -57.0924 174.166 -0.130752 174.335 -177.525 4.1567 87.5998 -7.42534 -16.7159 -1.02753 47.7681 -17.2097 -14.4878 8.1321 -9.87388 4.70498 172.501 4.77569 88.0797 -9.72244 10.6149 -0.314247 53.9673 17.2941 21.2665 15.6697 18.4008 -2.52134 -0.632609 7.42561 -90.7451 12.0123 -1.60925 -1.31111 0.341703 -1.6654 -1.23902 -22.1927 -1.14088 -1.73409 -2.18002 -1.14088 -1.7341 102.883 15.4367 -77.0192 86.5614 -25.1458 -9.37143 8.83838 -49.1871 0.00749634 -10.6082 -1.05997 6.91558 -74.7107 -11.3164 105.273 -84.619 -25.0109 -12.1762 -162.767 85.6797 179.668 -0.525702 -0.025492 -8.5935 36.4124 7.11806 9.52138 -26.4272 2.42912 -0.513433 
-2.37155 12.0111 -57.0804 174.276 -0.294773 174.277 -177.539 4.25871 87.5587 -7.35424 -16.7748 -1.07789 47.656 -17.3283 -14.5224 8.35552 -9.771 4.71602 172.553 4.95419 88.0595 -9.73652 10.4307 -0.32932 54.0592 17.1726 21.2508 15.6826 18.3997 -2.5664 -0.615652 7.41044 -90.7405 12.0428 -1.57352 -1.30522 0.372171 -1.62943 -1.23471 -22.162 -1.10856 -1.71773 -2.14939 -1.10856 -1.71773 102.885 15.4567 -76.9896 86.5221 -25.3143 -9.38908 8.91527 -49.0173 0.00747075 -10.7681 -1.09503 7.1134 -74.7152 -11.2985 105.264 -84.5897 -24.8608 -12.1363 -162.862 85.7937 179.659 -0.364602 -0.0252995 -8.63965 36.7864 7.59459 8.87662 -27.6119 2.99261 0.200834 
-2.37837 12.0439 -57.1102 174.143 -0.140522 174.302 -177.552 4.15464 87.5736 -7.43805 -16.6082 -1.01968 47.6268 -17.3572 -14.6611 8.56483 -9.87069 5.42714 172.529 4.79596 88.0819 -9.78554 10.7003 -0.357562 54.0461 17.3092 21.4199 15.6409 18.4868 -2.64362 -0.616451 7.4259 -90.7463 12.0117 -1.57766 -1.31682 0.341162 -1.63409 -1.24612 -22.1929 -1.10903 -1.73003 -2.18032 -1.10904 -1.73003 102.887 15.5136 -76.9533 86.6103 -25.0195 -9.29457 8.82315 -49.0351 0.00747342 -10.6345 -1.05185 6.78349 -74.7304 -11.3479 105.214 -84.6347 -24.9265 -12.311 -162.809 84.0567 179.759 -0.0209933 -0.0355851 -8.41805 36.8698 7.69695 8.83289 -27.9794 3.10944 0.176637 
-2.36631 12.0072 -57.0845 174.288 -0.260598 174.214 -177.588 4.0886 87.4821 -7.07165 -16.7387 -1.0841 47.6777 -17.0872 -14.3948 8.26695 -9.87276 4.92585 172.541 5.10421 87.988 -10.0492 10.4929 -0.366291 54.0131 17.4635 21.3644 15.6551 18.3943 -2.44949 -0.610275 7.41286 -90.7331 12.0382 -1.55933 -1.2922 0.367577 -1.61469 -1.22231 -22.1667 -1.09894 -1.70104 -2.15402 -1.09895 -1.70105 102.885 15.4703 -76.9864 86.6117 -25.0295 -9.27862 8.86326 -49.4593 0.0075379 -10.5804 -1.09421 7.32533 -74.7252 -11.3408 105.229 -84.6394 -24.8749 -12.2586 -162.785 85.5999 179.674 -0.72574 -0.0129266 -8.70628 36.8373 7.67475 8.76598 -27.8899 3.08602 0.336101 
-2.35183 12.0122 -57.1001 174.228 -0.169613 174.249 -177.584 4.13098 87.5081 -7.29772 -16.8068 -1.02674 47.6785 -17.2361 -14.5793 8.12115 -9.96726 5.01241 172.483 4.89705 87.9918 -9.85344 10.454 -0.310836 54.0103 17.3383 21.2372 15.5715 18.4886 -2.39157 -0.615228 7.4211 -90.7382 12.0215 -1.5715 -1.30118 0.350903 -1.62724 -1.23076 -22.1834 -1.10785 -1.71327 -2.1707 -1.10786 -1.71327 102.884 15.497 -76.9901 86.6067 -25.1532 -9.3371 8.90537 -49.322 0.00751685 -10.7162 -1.09549 7.1822 -74.7257 -11.3322 105.23 -84.5849 -24.8635 -12.2476 -162.893 85.2744 179.697 -0.722752 -0.0124744 -8.56357 36.8304 7.71281 8.78223 -27.9136 3.12836 0.280936 
